# xmcd
#
# Track frame offsets: 
#        150
#        23142
#        43320
#        66315
#        86122
#        94165
#        113562
#        134825
#        154760
#        169657
#        194440
#        205032
#        222515
#        228045
#        244042
#        262275
#        281067
#
# Disc length: 4046 seconds
#
# Revision: 2
# Processed by: cddbd v1.5.2PL0 Copyright (c) Steve Scherf et al.
# Submitted via: ExactAudioCopyFreeDBPlugin 1.0
#
DISCID=020fcc11
DTITLE=Assorted Phlavors - Assorted Phlavors
DYEAR=1996
DGENRE=R&B
TTITLE0=Tell Me
TTITLE1=Hiding Place (Featuring Patra)
TTITLE2=Make Up Your Mind
TTITLE3=Trust
TTITLE4=What You Gonna Do (Interlude)
TTITLE5=Patience
TTITLE6=First You Said
TTITLE7=Don't Let Go
TTITLE8=Tonight (Interlude)
TTITLE9=Can't Get You Off My Mind
TTITLE10=Love So Real (Interlude)
TTITLE11=Love Ballad
TTITLE12=Don't Stop (Interlude)
TTITLE13=Farewell
TTITLE14=Lovin' On The D.L.
TTITLE15=Lovin' You
TTITLE16=Patience (Remix)
EXTD=
EXTT0=
EXTT1=
EXTT2=
EXTT3=
EXTT4=
EXTT5=
EXTT6=
EXTT7=
EXTT8=
EXTT9=
EXTT10=
EXTT11=
EXTT12=
EXTT13=
EXTT14=
EXTT15=
EXTT16=
PLAYORDER=
